<svg xmlns="http://www.w3.org/2000/svg" xmlns:xlink="http://www.w3.org/1999/xlink" version="1.1" x="0px" y="0px" viewBox="0 0 48 60" enable-background="new 0 0 48 48" xml:space="preserve"><g><path d="M0.914,20.46v12.833c0,0.295,0.131,0.574,0.358,0.763l8.064,6.672c0.181,0.15,0.404,0.228,0.631,0.228   c0.143,0,0.287-0.031,0.421-0.094c0.348-0.163,0.568-0.513,0.568-0.896V26.12c-0.523-0.013-1.034-0.159-1.48-0.433L0.914,20.46z"/><path d="M28.942,26.29c0,0.352,0.187,0.677,0.491,0.854l16.52,9.637c0.153,0.089,0.326,0.134,0.498,0.134   c0.17,0,0.341-0.043,0.493-0.132c0.308-0.177,0.497-0.503,0.497-0.857v-15.96l-18.499,3.15V26.29z"/><path d="M47.419,16.127L27.604,7.133c-0.175-0.079-0.369-0.105-0.561-0.077L16.094,8.75c-0.456,0.069-0.804,0.444-0.838,0.904   c-0.033,0.461,0.255,0.884,0.696,1.02c2.457,0.758,4.887,1.947,5.322,2.586c-0.307,0.263-1.705,1.041-7.74,1.481L0.889,16.043   c-0.423,0.044-0.771,0.352-0.864,0.767c-0.094,0.413,0.087,0.842,0.45,1.063L10.514,24c0.155,0.096,0.334,0.145,0.516,0.145   c0.055,0,0.11-0.005,0.166-0.014l35.98-6.128c0.429-0.072,0.76-0.416,0.816-0.849C48.047,16.724,47.815,16.307,47.419,16.127z"/></g><text x="0" y="63" fill="#000000" font-size="5px" font-weight="bold" font-family="'Helvetica Neue', Helvetica, Arial-Unicode, Arial, Sans-serif">Created by Creative Stall</text><text x="0" y="68" fill="#000000" font-size="5px" font-weight="bold" font-family="'Helvetica Neue', Helvetica, Arial-Unicode, Arial, Sans-serif">from the Noun Project</text></svg>