<svg xmlns:dc="http://purl.org/dc/elements/1.1/" xmlns:cc="http://creativecommons.org/ns#" xmlns:rdf="http://www.w3.org/1999/02/22-rdf-syntax-ns#" xmlns:svg="http://www.w3.org/2000/svg" xmlns="http://www.w3.org/2000/svg" xmlns:sodipodi="http://sodipodi.sourceforge.net/DTD/sodipodi-0.dtd" xmlns:inkscape="http://www.inkscape.org/namespaces/inkscape" version="1.1" x="0px" y="0px" viewBox="0 0 100 125"><g transform="translate(0,-952.36218)"><path style="text-indent:0;text-transform:none;direction:ltr;block-progression:tb;baseline-shift:baseline;color:#000000;enable-background:accumulate;" d="M 25.8125 6 A 2.0002 2.0002 0 0 0 24 8 L 24 92 A 2.0002 2.0002 0 0 0 26 94 L 74 94 A 2.0002 2.0002 0 0 0 76 92 L 76 8 A 2.0002 2.0002 0 0 0 74 6 L 26 6 A 2.0002 2.0002 0 0 0 25.8125 6 z M 28 10 L 72 10 L 72 90 L 58 90 L 58 68 A 2.0002 2.0002 0 0 0 56 66 L 44 66 A 2.0002 2.0002 0 0 0 43.8125 66 A 2.0002 2.0002 0 0 0 42 68 L 42 90 L 28 90 L 28 10 z M 33.8125 14 A 2.0002 2.0002 0 0 0 32 16 L 32 34 A 2.0002 2.0002 0 0 0 34 36 L 46 36 A 2.0002 2.0002 0 0 0 48 34 L 48 16 A 2.0002 2.0002 0 0 0 46 14 L 34 14 A 2.0002 2.0002 0 0 0 33.8125 14 z M 54 14 A 2.0002 2.0002 0 0 0 52 16 L 52 34 A 2.0002 2.0002 0 0 0 54 36 L 66 36 A 2.0002 2.0002 0 0 0 68 34 L 68 16 A 2.0002 2.0002 0 0 0 66.1875 14 A 2.0002 2.0002 0 0 0 66 14 L 54 14 z M 36 18 L 44 18 L 44 32 L 36 32 L 36 18 z M 56 18 L 64 18 L 64 32 L 56 32 L 56 18 z M 33.8125 40 A 2.0002 2.0002 0 0 0 32 42 L 32 60 A 2.0002 2.0002 0 0 0 34 62 L 46 62 A 2.0002 2.0002 0 0 0 48 60 L 48 42 A 2.0002 2.0002 0 0 0 46 40 L 34 40 A 2.0002 2.0002 0 0 0 33.8125 40 z M 54 40 A 2.0002 2.0002 0 0 0 52 42 L 52 60 A 2.0002 2.0002 0 0 0 54 62 L 66 62 A 2.0002 2.0002 0 0 0 68 60 L 68 42 A 2.0002 2.0002 0 0 0 66.1875 40 A 2.0002 2.0002 0 0 0 66 40 L 54 40 z M 36 44 L 44 44 L 44 58 L 36 58 L 36 44 z M 56 44 L 64 44 L 64 58 L 56 58 L 56 44 z M 46 70 L 54 70 L 54 90 L 46 90 L 46 70 z " transform="translate(0,952.36218)" fill="#000000" fill-opacity="1" stroke="none" marker="none" visibility="visible" display="inline" overflow="visible"/></g><text x="0" y="115" fill="#000000" font-size="5px" font-weight="bold" font-family="'Helvetica Neue', Helvetica, Arial-Unicode, Arial, Sans-serif">Created by iconsphere</text><text x="0" y="120" fill="#000000" font-size="5px" font-weight="bold" font-family="'Helvetica Neue', Helvetica, Arial-Unicode, Arial, Sans-serif">from the Noun Project</text></svg>